# xmcd
#
# Track frame offsets:
#	150
#	11828
#	30350
#	46563
#	63874
#	87227
#	102754
#	119091
#	133959
#	147200
#	159157
#
# Disc length: 2377 seconds
#
# Revision: 0
# Processed by: cddbd v1.4PL0 Copyright (c) Steve Scherf et al.
# Submitted via: dBpowerAMP V4.0
#
DISCID=8709470b
DTITLE=Sawmill Creek - Wild Western Windblown Man
DYEAR=1978
DGENRE=Country
TTITLE0=Wild Western Windblown Man
TTITLE1=Cold Wyoming Snow
TTITLE2=Willow
TTITLE3=Colours
TTITLE4=Take A Long Year
TTITLE5=Sawmill Creek
TTITLE6=Wish I Could See It Like You Do
TTITLE7=Blues For Dixie
TTITLE8=I'd Rather Have Your Memory
TTITLE9=Fishermans Breakdown
TTITLE10=Grandma Shoes
EXTD=
EXTT0=
EXTT1=
EXTT2=
EXTT3=
EXTT4=
EXTT5=
EXTT6=
EXTT7=
EXTT8=
EXTT9=
EXTT10=
PLAYORDER=
